<?xml version="1.0" encoding="utf-8"?>
<svg viewBox="0 0 448.529 438.914" xmlns="http://www.w3.org/2000/svg" xmlns:bx="https://boxy-svg.com">
  <path style="stroke: rgb(0, 0, 0); fill: rgb(255, 213, 213);" d="M 187.217 199.095 C 187.217 199.095 340.882 76.368 336.538 46.946 C 334.234 31.338 301.435 12.893 283.937 18.099 C 251.574 27.729 187.217 199.095 187.217 199.095 C 187.217 199.095 187.217 199.095 187.217 199.095 C 187.217 199.095 187.217 199.095 187.217 199.095" bx:d="M 187.217 199.095 R 336.538 46.946 R 283.937 18.099 R 187.217 199.095 R 187.217 199.095 Z 1@df02f571"/>
  <path style="stroke: rgb(0, 0, 0); fill: rgb(255, 213, 213);" d="M 145.928 372.172 C 139.8 377.075 178.368 205.608 187.217 198.529 Z M 137.138 206.991 C 139.813 206.59 142.994 206.544 145.622 207.557 C 148.389 208.623 151.597 210.689 153.258 213.495 C 155.107 216.619 156.276 222.176 155.52 225.939 C 154.785 229.604 152.199 233.793 149.016 235.837 C 145.636 238.007 139.44 238.919 135.441 238.1 C 131.675 237.327 127.572 234.639 125.543 231.595 C 123.497 228.526 122.558 223.359 123.281 219.717 C 123.997 216.105 127.229 211.934 129.785 209.819 C 131.956 208.022 134.543 207.379 137.138 206.991 Z"/>
</svg>